<svg width="27" height="32" viewBox="0 0 27 32" fill="none" xmlns="http://www.w3.org/2000/svg">
<path d="M13.3639 0C20.7446 0 26.7279 5.98323 26.7279 13.3639C26.7279 18.8955 22.5114 24.6931 14.2549 30.8855C13.7269 31.2815 13.001 31.2815 12.473 30.8855C4.21648 24.6931 0 18.8955 0 13.3639C0 5.98323 5.98323 0 13.3639 0ZM13.3639 8.90929C10.9037 8.90929 8.90929 10.9037 8.90929 13.3639C8.90929 15.8242 10.9037 17.8186 13.3639 17.8186C15.8242 17.8186 17.8186 15.8242 17.8186 13.3639C17.8186 10.9037 15.8242 8.90929 13.3639 8.90929Z" fill="#059BC5"/>
</svg>
